<svg width="210" height="" viewBox="0 0 129 44" fill="none" xmlns="http://www.w3.org/2000/svg">
<path d="M41.4373 21.8888C41.4374 23.1072 41.0569 24.2956 40.3485 25.2896C39.64 26.2836 38.6385 27.0342 37.4826 27.4375C37.1712 27.5032 36.8623 27.5846 36.5571 27.6766C34.4415 28.3327 32.5777 29.6153 31.2148 31.353C29.8519 33.0908 29.0548 35.2011 28.93 37.4017C28.9058 37.8478 28.9086 38.2949 28.9384 38.7407C28.8237 39.7904 28.4268 40.79 27.7895 41.6345C27.1523 42.479 26.2981 43.1372 25.3167 43.5399C24.3353 43.9426 23.263 44.075 22.2124 43.9231C21.1618 43.7712 20.1718 43.3407 19.3462 42.6767C18.5207 42.0129 17.8903 41.1401 17.521 40.1501C17.1519 39.1601 17.0576 38.0895 17.248 37.0507C17.4385 36.0119 17.9067 35.0434 18.6035 34.2467C19.3004 33.4501 20.2 32.8549 21.208 32.5236C21.4372 32.4718 21.6656 32.4116 21.8932 32.343C24.0748 31.6908 25.9953 30.3737 27.3838 28.5776C28.7723 26.7814 29.5587 24.5969 29.6319 22.3323C29.6408 22.0573 29.6408 21.7823 29.6319 21.5074C29.5325 19.2812 28.7446 17.1398 27.3756 15.376C26.0065 13.612 24.1234 12.3115 21.9834 11.6521C21.7129 11.5672 21.4389 11.4954 21.1635 11.4345C20.1573 11.0882 19.2638 10.4781 18.5774 9.66851C17.891 8.85891 17.4373 7.87991 17.264 6.83499C17.0908 5.79007 17.2047 4.71801 17.5935 3.73212C17.9822 2.74622 18.6316 1.88309 19.4729 1.23393C20.3141 0.584776 21.316 0.173705 22.3728 0.0441549C23.4295 -0.085396 24.5019 0.0713871 25.4764 0.497937C26.451 0.924486 27.2915 1.60496 27.9094 2.46745C28.5273 3.32994 28.8994 4.34242 28.9865 5.3979C28.9757 5.69441 28.978 5.9957 28.9865 6.28862C29.0958 8.52182 29.8975 10.6665 31.2817 12.4283C32.6659 14.1899 34.5646 15.4821 36.7169 16.1272C36.9324 16.1917 37.1489 16.2487 37.366 16.2981C38.5504 16.6844 39.5817 17.433 40.3129 18.437C41.044 19.4409 41.4375 20.649 41.4373 21.8888Z" fill="#7765C4"/>
<path d="M0.815393 36.8658C0.894439 35.6516 1.35003 34.4916 2.11944 33.5456C2.88883 32.5996 3.93418 31.9141 5.11152 31.5836C5.43207 31.5382 5.74781 31.4775 6.05874 31.4019C8.43704 30.8291 10.5518 29.4756 12.0613 27.56C13.5708 25.6445 14.3871 23.2786 14.3781 20.8448C14.5603 19.805 15.0206 18.8331 15.7105 18.0312C16.4006 17.2294 17.295 16.6271 18.2998 16.2875C19.3046 15.948 20.3828 15.8838 21.4211 16.1017C22.4594 16.3196 23.4196 16.8116 24.2008 17.5259C24.9821 18.2401 25.5555 19.1505 25.8611 20.1613C26.1666 21.1721 26.1929 22.2461 25.9372 23.2705C25.6815 24.2948 25.1532 25.2319 24.4079 25.9831C23.6625 26.7344 22.7274 27.2722 21.701 27.5401C21.4606 27.5783 21.2222 27.625 20.9858 27.68C18.7668 28.1938 16.7661 29.3876 15.2659 31.093C13.7656 32.7984 12.8417 34.9293 12.6243 37.185C12.5979 37.4504 12.5835 37.7171 12.5775 37.9836C12.47 38.8183 12.1836 39.6204 11.7379 40.3357C11.2921 41.0508 10.6973 41.6627 9.99348 42.1296C9.28967 42.5967 8.49331 42.9081 7.65816 43.0429C6.82302 43.1776 5.96853 43.1325 5.15239 42.9107C4.94204 42.8318 4.73047 42.76 4.51531 42.6966C3.35992 42.2359 2.38023 41.4242 1.71587 40.3772C1.05151 39.3302 0.736377 38.1013 0.815393 36.8658Z" fill="#7765C4"/>
<path d="M59.0214 15.2482H62.9094C63.4374 15.2482 63.9534 15.3022 64.4574 15.4102C64.9614 15.5182 65.4114 15.6982 65.8074 15.9502C66.2034 16.1902 66.5214 16.5082 66.7614 16.9042C67.0134 17.3002 67.1394 17.7922 67.1394 18.3802C67.1394 19.1242 66.9354 19.7422 66.5274 20.2342C66.1314 20.7142 65.5914 21.0562 64.9074 21.2602V21.2962C65.3154 21.3322 65.6934 21.4402 66.0414 21.6202C66.4014 21.7882 66.7074 22.0102 66.9594 22.2862C67.2234 22.5622 67.4274 22.8862 67.5714 23.2582C67.7154 23.6182 67.7874 24.0082 67.7874 24.4282C67.7874 25.1362 67.6374 25.7182 67.3374 26.1742C67.0494 26.6302 66.6654 26.9962 66.1854 27.2722C65.7174 27.5362 65.1834 27.7222 64.5834 27.8302C63.9954 27.9382 63.4074 27.9922 62.8194 27.9922H59.0214V15.2482ZM60.5334 20.6482H62.6214C62.9814 20.6482 63.3294 20.6242 63.6654 20.5762C64.0134 20.5282 64.3254 20.4322 64.6014 20.2882C64.8774 20.1322 65.0994 19.9222 65.2674 19.6582C65.4354 19.3822 65.5194 19.0222 65.5194 18.5782C65.5194 18.1822 65.4414 17.8642 65.2854 17.6242C65.1294 17.3722 64.9194 17.1742 64.6554 17.0302C64.4034 16.8862 64.1094 16.7902 63.7734 16.7422C63.4494 16.6822 63.1194 16.6522 62.7834 16.6522H60.5334V20.6482ZM60.5334 26.5882H63.0894C63.4614 26.5882 63.8274 26.5522 64.1874 26.4802C64.5594 26.3962 64.8894 26.2702 65.1774 26.1022C65.4774 25.9222 65.7174 25.6942 65.8974 25.4182C66.0774 25.1302 66.1674 24.7822 66.1674 24.3742C66.1674 23.9302 66.0774 23.5582 65.8974 23.2582C65.7294 22.9582 65.5014 22.7182 65.2134 22.5382C64.9374 22.3582 64.6134 22.2322 64.2414 22.1602C63.8814 22.0882 63.5094 22.0522 63.1254 22.0522H60.5334V26.5882ZM70.2333 14.3842H71.6373V27.9922H70.2333V14.3842ZM74.5751 19.5682H75.9791V27.9922H74.5751V19.5682ZM74.2511 16.2742C74.2511 15.9982 74.3471 15.7582 74.5391 15.5542C74.7431 15.3502 74.9891 15.2482 75.2771 15.2482C75.5651 15.2482 75.8051 15.3502 75.9971 15.5542C76.2011 15.7582 76.3031 15.9982 76.3031 16.2742C76.3031 16.5742 76.2071 16.8202 76.0151 17.0122C75.8231 17.2042 75.5771 17.3002 75.2771 17.3002C74.9771 17.3002 74.7311 17.2042 74.5391 17.0122C74.3471 16.8202 74.2511 16.5742 74.2511 16.2742ZM78.7733 21.5662C78.7733 21.1822 78.7613 20.8222 78.7373 20.4862C78.7133 20.1502 78.7013 19.8442 78.7013 19.5682H80.0333C80.0333 19.7962 80.0393 20.0242 80.0513 20.2522C80.0633 20.4802 80.0693 20.7142 80.0693 20.9542H80.1053C80.2013 20.7502 80.3333 20.5522 80.5013 20.3602C80.6813 20.1682 80.8913 20.0002 81.1313 19.8562C81.3713 19.7002 81.6413 19.5802 81.9413 19.4962C82.2413 19.4002 82.5653 19.3522 82.9133 19.3522C83.4653 19.3522 83.9393 19.4362 84.3353 19.6042C84.7433 19.7722 85.0793 20.0062 85.3433 20.3062C85.6073 20.6062 85.7993 20.9722 85.9193 21.4042C86.0513 21.8242 86.1173 22.2862 86.1173 22.7902V27.9922H84.7133V22.9342C84.7133 22.2262 84.5573 21.6682 84.2453 21.2602C83.9333 20.8522 83.4473 20.6482 82.7873 20.6482C82.3313 20.6482 81.9353 20.7262 81.5993 20.8822C81.2753 21.0382 81.0053 21.2602 80.7893 21.5482C80.5853 21.8362 80.4293 22.1782 80.3213 22.5742C80.2253 22.9702 80.1773 23.4082 80.1773 23.8882V27.9922H78.7733V21.5662ZM97.1812 32.0962H95.7772V26.7682H95.7412C95.3572 27.2242 94.9072 27.5782 94.3912 27.8302C93.8872 28.0822 93.3292 28.2082 92.7172 28.2082C92.0572 28.2082 91.4512 28.1002 90.8992 27.8842C90.3592 27.6562 89.8972 27.3442 89.5132 26.9482C89.1292 26.5522 88.8292 26.0842 88.6132 25.5442C88.3972 25.0042 88.2892 24.4162 88.2892 23.7802C88.2892 23.1562 88.3972 22.5742 88.6132 22.0342C88.8292 21.4942 89.1232 21.0262 89.4952 20.6302C89.8792 20.2342 90.3292 19.9222 90.8452 19.6942C91.3612 19.4662 91.9132 19.3522 92.5012 19.3522C93.2572 19.3522 93.9172 19.5202 94.4812 19.8562C95.0572 20.1802 95.4772 20.5822 95.7412 21.0622H95.7772V19.5682H97.1812V32.0962ZM95.7772 23.7802C95.7772 23.3362 95.7052 22.9282 95.5612 22.5562C95.4292 22.1722 95.2312 21.8422 94.9672 21.5662C94.7032 21.2782 94.3852 21.0562 94.0132 20.9002C93.6532 20.7322 93.2452 20.6482 92.7892 20.6482C92.3332 20.6482 91.9192 20.7322 91.5472 20.9002C91.1872 21.0562 90.8752 21.2782 90.6112 21.5662C90.3472 21.8422 90.1432 22.1722 89.9992 22.5562C89.8672 22.9282 89.8012 23.3362 89.8012 23.7802C89.8012 24.2242 89.8672 24.6382 89.9992 25.0222C90.1432 25.3942 90.3472 25.7242 90.6112 26.0122C90.8752 26.2882 91.1872 26.5102 91.5472 26.6782C91.9192 26.8342 92.3332 26.9122 92.7892 26.9122C93.2452 26.9122 93.6532 26.8342 94.0132 26.6782C94.3852 26.5102 94.7032 26.2882 94.9672 26.0122C95.2312 25.7242 95.4292 25.3942 95.5612 25.0222C95.7052 24.6382 95.7772 24.2242 95.7772 23.7802ZM99.7071 19.5682H101.111V20.7922H101.147C101.531 20.3362 101.975 19.9822 102.479 19.7302C102.995 19.4782 103.559 19.3522 104.171 19.3522C104.831 19.3522 105.431 19.4662 105.971 19.6942C106.523 19.9102 106.991 20.2162 107.375 20.6122C107.759 21.0082 108.059 21.4762 108.275 22.0162C108.491 22.5562 108.599 23.1442 108.599 23.7802C108.599 24.4162 108.491 25.0042 108.275 25.5442C108.059 26.0842 107.759 26.5522 107.375 26.9482C107.003 27.3442 106.559 27.6562 106.043 27.8842C105.527 28.1002 104.975 28.2082 104.387 28.2082C103.631 28.2082 102.965 28.0462 102.389 27.7222C101.825 27.3862 101.411 26.9782 101.147 26.4982H101.111V32.0962H99.7071V19.5682ZM101.111 23.7802C101.111 24.2242 101.177 24.6382 101.309 25.0222C101.453 25.3942 101.657 25.7242 101.921 26.0122C102.185 26.2882 102.497 26.5102 102.857 26.6782C103.229 26.8342 103.643 26.9122 104.099 26.9122C104.555 26.9122 104.963 26.8342 105.323 26.6782C105.695 26.5102 106.013 26.2882 106.277 26.0122C106.541 25.7242 106.739 25.3942 106.871 25.0222C107.015 24.6382 107.087 24.2242 107.087 23.7802C107.087 23.3362 107.015 22.9282 106.871 22.5562C106.739 22.1722 106.541 21.8422 106.277 21.5662C106.013 21.2782 105.695 21.0562 105.323 20.9002C104.963 20.7322 104.555 20.6482 104.099 20.6482C103.643 20.6482 103.229 20.7322 102.857 20.9002C102.497 21.0562 102.185 21.2782 101.921 21.5662C101.657 21.8422 101.453 22.1722 101.309 22.5562C101.177 22.9282 101.111 23.3362 101.111 23.7802ZM110.675 20.6482C111.107 20.2042 111.617 19.8802 112.205 19.6762C112.805 19.4602 113.411 19.3522 114.023 19.3522C115.271 19.3522 116.171 19.6462 116.723 20.2342C117.275 20.8222 117.551 21.7162 117.551 22.9162V26.5342C117.551 26.7742 117.563 27.0262 117.587 27.2902C117.611 27.5422 117.641 27.7762 117.677 27.9922H116.327C116.279 27.8002 116.249 27.5902 116.237 27.3622C116.237 27.1222 116.237 26.9122 116.237 26.7322H116.201C115.925 27.1642 115.553 27.5182 115.085 27.7942C114.629 28.0702 114.077 28.2082 113.429 28.2082C112.997 28.2082 112.589 28.1542 112.205 28.0462C111.833 27.9382 111.503 27.7822 111.215 27.5782C110.939 27.3622 110.717 27.0982 110.549 26.7862C110.381 26.4742 110.297 26.1142 110.297 25.7062C110.297 25.0102 110.477 24.4642 110.837 24.0682C111.197 23.6722 111.641 23.3782 112.169 23.1862C112.709 22.9942 113.285 22.8742 113.897 22.8262C114.521 22.7782 115.091 22.7542 115.607 22.7542H116.147V22.5022C116.147 21.8902 115.961 21.4282 115.589 21.1162C115.229 20.8042 114.719 20.6482 114.059 20.6482C113.603 20.6482 113.153 20.7262 112.709 20.8822C112.277 21.0262 111.893 21.2542 111.557 21.5662L110.675 20.6482ZM114.743 23.9422C113.843 23.9422 113.129 24.0682 112.601 24.3202C112.073 24.5722 111.809 24.9862 111.809 25.5622C111.809 26.0902 111.983 26.4682 112.331 26.6962C112.691 26.9122 113.135 27.0202 113.663 27.0202C114.071 27.0202 114.425 26.9542 114.725 26.8222C115.037 26.6782 115.295 26.4922 115.499 26.2642C115.703 26.0362 115.859 25.7722 115.967 25.4722C116.075 25.1602 116.135 24.8302 116.147 24.4822V23.9422H114.743ZM123.213 29.9182C123.069 30.2782 122.919 30.6022 122.763 30.8902C122.619 31.1902 122.439 31.4422 122.223 31.6462C122.019 31.8622 121.767 32.0242 121.467 32.1322C121.179 32.2522 120.825 32.3122 120.405 32.3122C120.201 32.3122 119.985 32.3002 119.757 32.2762C119.541 32.2522 119.337 32.1922 119.145 32.0962L119.325 30.8722C119.469 30.9322 119.619 30.9682 119.775 30.9802C119.931 31.0042 120.111 31.0162 120.315 31.0162C120.771 31.0162 121.107 30.8902 121.323 30.6382C121.539 30.3862 121.725 30.0502 121.881 29.6302L122.457 28.0462L118.965 19.5682H120.603L123.213 26.1742H123.249L125.751 19.5682H127.281L123.213 29.9182Z" fill="#7765C4"/>
</svg>
