<svg width="156" height="44" viewBox="0 0 156 44" fill="none" xmlns="http://www.w3.org/2000/svg">
<path d="M41.0712 21.8888C41.0714 23.1072 40.6908 24.2956 39.9824 25.2896C39.2739 26.2836 38.2725 27.0342 37.1165 27.4375C36.8051 27.5032 36.4962 27.5846 36.191 27.6766C34.0754 28.3327 32.2116 29.6153 30.8487 31.353C29.4858 33.0908 28.6887 35.2011 28.5639 37.4017C28.5397 37.8478 28.5425 38.2949 28.5723 38.7407C28.4576 39.7904 28.0607 40.79 27.4235 41.6345C26.7862 42.479 25.932 43.1372 24.9506 43.5399C23.9692 43.9426 22.8969 44.075 21.8463 43.9231C20.7957 43.7712 19.8058 43.3407 18.9802 42.6767C18.1547 42.0129 17.5242 41.1401 17.1549 40.1501C16.7858 39.1601 16.6915 38.0895 16.8819 37.0507C17.0724 36.0119 17.5406 35.0434 18.2374 34.2467C18.9343 33.4501 19.8339 32.8549 20.8419 32.5236C21.0711 32.4718 21.2995 32.4116 21.5271 32.343C23.7087 31.6908 25.6292 30.3737 27.0178 28.5776C28.4062 26.7814 29.1926 24.5969 29.2659 22.3323C29.2748 22.0573 29.2748 21.7823 29.2659 21.5074C29.1664 19.2812 28.3785 17.1398 27.0095 15.376C25.6404 13.612 23.7573 12.3115 21.6173 11.6521C21.3468 11.5672 21.0728 11.4954 20.7974 11.4345C19.7912 11.0882 18.8977 10.4781 18.2114 9.66851C17.5249 8.85891 17.0712 7.87991 16.8979 6.83499C16.7247 5.79007 16.8386 4.71801 17.2274 3.73212C17.6162 2.74622 18.2655 1.88309 19.1068 1.23393C19.948 0.584776 20.9499 0.173705 22.0067 0.0441549C23.0634 -0.085396 24.1358 0.0713871 25.1103 0.497937C26.0849 0.924486 26.9254 1.60496 27.5433 2.46745C28.1612 3.32994 28.5333 4.34242 28.6204 5.3979C28.6096 5.69441 28.6119 5.9957 28.6204 6.28862C28.7297 8.52182 29.5315 10.6665 30.9156 12.4283C32.2998 14.1899 34.1985 15.4821 36.3508 16.1272C36.5664 16.1917 36.7828 16.2487 36.9999 16.2981C38.1843 16.6844 39.2156 17.433 39.9468 18.437C40.6779 19.4409 41.0715 20.649 41.0712 21.8888Z" fill="#FAFAFA"/>
<path d="M0.449304 36.8658C0.52835 35.6516 0.983944 34.4916 1.75335 33.5456C2.52274 32.5996 3.5681 31.9141 4.74543 31.5836C5.06598 31.5382 5.38172 31.4775 5.69265 31.4019C8.07095 30.8291 10.1857 29.4756 11.6952 27.56C13.2048 25.6445 14.021 23.2786 14.012 20.8448C14.1942 19.805 14.6545 18.8331 15.3444 18.0312C16.0345 17.2294 16.9289 16.6271 17.9337 16.2875C18.9385 15.948 20.0167 15.8838 21.055 16.1017C22.0933 16.3196 23.0535 16.8116 23.8347 17.5259C24.616 18.2401 25.1895 19.1505 25.495 20.1613C25.8006 21.1721 25.8268 22.2461 25.5711 23.2705C25.3154 24.2948 24.7872 25.2319 24.0418 25.9831C23.2964 26.7344 22.3613 27.2722 21.3349 27.5401C21.0945 27.5783 20.8562 27.625 20.6197 27.68C18.4008 28.1938 16.4 29.3876 14.8998 31.093C13.3995 32.7984 12.4756 34.9293 12.2582 37.185C12.2318 37.4504 12.2174 37.7171 12.2114 37.9836C12.1039 38.8183 11.8175 39.6204 11.3718 40.3357C10.926 41.0508 10.3312 41.6627 9.62739 42.1296C8.92358 42.5967 8.12722 42.9081 7.29208 43.0429C6.45693 43.1776 5.60244 43.1325 4.7863 42.9107C4.57595 42.8318 4.36438 42.76 4.14922 42.6966C2.99383 42.2359 2.01414 41.4242 1.34978 40.3772C0.685417 39.3302 0.370288 38.1013 0.449304 36.8658Z" fill="#FAFAFA"/>
<path d="M58.9673 13.0002H65.5913C66.2313 13.0002 66.8633 13.0802 67.4873 13.2402C68.1113 13.3842 68.6633 13.6322 69.1433 13.9842C69.6393 14.3202 70.0393 14.7602 70.3433 15.3042C70.6473 15.8482 70.7993 16.5042 70.7993 17.2722C70.7993 18.2322 70.5273 19.0242 69.9833 19.6482C69.4393 20.2722 68.7273 20.7202 67.8473 20.9922V21.0402C68.3753 21.1042 68.8633 21.2562 69.3113 21.4962C69.7753 21.7202 70.1673 22.0162 70.4873 22.3842C70.8073 22.7362 71.0553 23.1522 71.2313 23.6322C71.4233 24.0962 71.5193 24.6002 71.5193 25.1442C71.5193 26.0722 71.3353 26.8482 70.9673 27.4722C70.5993 28.0802 70.1113 28.5762 69.5033 28.9602C68.9113 29.3282 68.2233 29.5922 67.4393 29.7522C66.6713 29.9122 65.8873 29.9922 65.0873 29.9922H58.9673V13.0002ZM61.9913 19.9122H64.7513C65.7593 19.9122 66.5113 19.7202 67.0073 19.3362C67.5193 18.9362 67.7753 18.4162 67.7753 17.7762C67.7753 17.0402 67.5113 16.4962 66.9833 16.1442C66.4713 15.7762 65.6393 15.5922 64.4873 15.5922H61.9913V19.9122ZM61.9913 27.4002H64.7753C65.1593 27.4002 65.5673 27.3762 65.9993 27.3282C66.4473 27.2802 66.8553 27.1682 67.2233 26.9922C67.5913 26.8162 67.8953 26.5682 68.1353 26.2482C68.3753 25.9122 68.4953 25.4642 68.4953 24.9042C68.4953 24.0082 68.1993 23.3842 67.6073 23.0322C67.0313 22.6802 66.1273 22.5042 64.8953 22.5042H61.9913V27.4002ZM74.3138 11.8482H77.1938V29.9922H74.3138V11.8482ZM80.5716 18.4722H83.4516V29.9922H80.5716V18.4722ZM80.1636 14.5602C80.1636 14.0962 80.3316 13.6962 80.6676 13.3602C81.0196 13.0082 81.4596 12.8322 81.9876 12.8322C82.5156 12.8322 82.9556 13.0002 83.3076 13.3362C83.6756 13.6562 83.8596 14.0642 83.8596 14.5602C83.8596 15.0562 83.6756 15.4722 83.3076 15.8082C82.9556 16.1282 82.5156 16.2882 81.9876 16.2882C81.4596 16.2882 81.0196 16.1202 80.6676 15.7842C80.3316 15.4322 80.1636 15.0242 80.1636 14.5602ZM86.758 18.4722H89.494V20.3202H89.542C89.814 19.7442 90.23 19.2482 90.79 18.8322C91.35 18.4002 92.11 18.1842 93.07 18.1842C93.838 18.1842 94.486 18.3122 95.014 18.5682C95.558 18.8242 95.998 19.1602 96.334 19.5762C96.67 19.9922 96.91 20.4722 97.054 21.0162C97.198 21.5602 97.27 22.1282 97.27 22.7202V29.9922H94.39V24.1602C94.39 23.8402 94.374 23.4882 94.342 23.1042C94.31 22.7042 94.222 22.3362 94.078 22.0002C93.95 21.6482 93.742 21.3602 93.454 21.1362C93.166 20.8962 92.774 20.7762 92.278 20.7762C91.798 20.7762 91.39 20.8562 91.054 21.0162C90.734 21.1762 90.462 21.3922 90.238 21.6642C90.03 21.9362 89.878 22.2482 89.782 22.6002C89.686 22.9522 89.638 23.3202 89.638 23.7042V29.9922H86.758V18.4722ZM112.395 35.4642H109.515V28.5282H109.443C109.299 28.7202 109.115 28.9202 108.891 29.1282C108.667 29.3202 108.395 29.5042 108.075 29.6802C107.755 29.8562 107.387 30.0002 106.971 30.1122C106.555 30.2242 106.075 30.2802 105.531 30.2802C104.715 30.2802 103.963 30.1282 103.275 29.8242C102.587 29.5042 101.995 29.0722 101.499 28.5282C101.019 27.9842 100.643 27.3442 100.371 26.6082C100.099 25.8722 99.9632 25.0802 99.9632 24.2322C99.9632 23.3842 100.091 22.5922 100.347 21.8562C100.603 21.1202 100.979 20.4802 101.475 19.9362C101.971 19.3922 102.563 18.9682 103.251 18.6642C103.955 18.3442 104.755 18.1842 105.651 18.1842C106.467 18.1842 107.227 18.3442 107.931 18.6642C108.635 18.9842 109.195 19.4962 109.611 20.2002H109.659V18.4722H112.395V35.4642ZM102.843 24.2322C102.843 24.6802 102.915 25.1122 103.059 25.5282C103.219 25.9442 103.443 26.3122 103.731 26.6322C104.035 26.9522 104.395 27.2082 104.811 27.4002C105.227 27.5922 105.699 27.6882 106.227 27.6882C106.755 27.6882 107.227 27.5922 107.643 27.4002C108.059 27.2082 108.411 26.9522 108.699 26.6322C109.003 26.3122 109.227 25.9442 109.371 25.5282C109.531 25.1122 109.611 24.6802 109.611 24.2322C109.611 23.7842 109.531 23.3522 109.371 22.9362C109.227 22.5202 109.003 22.1522 108.699 21.8322C108.411 21.5122 108.059 21.2562 107.643 21.0642C107.227 20.8722 106.755 20.7762 106.227 20.7762C105.699 20.7762 105.227 20.8722 104.811 21.0642C104.395 21.2562 104.035 21.5122 103.731 21.8322C103.443 22.1522 103.219 22.5202 103.059 22.9362C102.915 23.3522 102.843 23.7842 102.843 24.2322ZM115.656 18.4722H118.392V20.2002H118.44C118.856 19.4962 119.416 18.9842 120.12 18.6642C120.824 18.3442 121.584 18.1842 122.4 18.1842C123.28 18.1842 124.072 18.3442 124.776 18.6642C125.48 18.9682 126.08 19.3922 126.576 19.9362C127.072 20.4802 127.448 21.1202 127.704 21.8562C127.96 22.5922 128.088 23.3842 128.088 24.2322C128.088 25.0802 127.952 25.8722 127.68 26.6082C127.408 27.3442 127.024 27.9842 126.528 28.5282C126.048 29.0722 125.464 29.5042 124.776 29.8242C124.088 30.1282 123.336 30.2802 122.52 30.2802C121.976 30.2802 121.496 30.2242 121.08 30.1122C120.664 30.0002 120.296 29.8562 119.976 29.6802C119.656 29.5042 119.384 29.3202 119.16 29.1282C118.936 28.9202 118.752 28.7202 118.608 28.5282H118.536V35.4642H115.656V18.4722ZM125.208 24.2322C125.208 23.7842 125.128 23.3522 124.968 22.9362C124.824 22.5202 124.6 22.1522 124.296 21.8322C124.008 21.5122 123.656 21.2562 123.24 21.0642C122.824 20.8722 122.352 20.7762 121.824 20.7762C121.296 20.7762 120.824 20.8722 120.408 21.0642C119.992 21.2562 119.632 21.5122 119.328 21.8322C119.04 22.1522 118.816 22.5202 118.656 22.9362C118.512 23.3522 118.44 23.7842 118.44 24.2322C118.44 24.6802 118.512 25.1122 118.656 25.5282C118.816 25.9442 119.04 26.3122 119.328 26.6322C119.632 26.9522 119.992 27.2082 120.408 27.4002C120.824 27.5922 121.296 27.6882 121.824 27.6882C122.352 27.6882 122.824 27.5922 123.24 27.4002C123.656 27.2082 124.008 26.9522 124.296 26.6322C124.6 26.3122 124.824 25.9442 124.968 25.5282C125.128 25.1122 125.208 24.6802 125.208 24.2322ZM137.974 28.4082H137.902C137.486 29.0642 136.958 29.5442 136.318 29.8482C135.678 30.1362 134.974 30.2802 134.206 30.2802C133.678 30.2802 133.158 30.2082 132.646 30.0642C132.15 29.9202 131.702 29.7042 131.302 29.4162C130.918 29.1282 130.606 28.7682 130.366 28.3362C130.126 27.9042 130.006 27.4002 130.006 26.8242C130.006 26.2002 130.118 25.6722 130.342 25.2402C130.566 24.7922 130.862 24.4242 131.23 24.1362C131.614 23.8322 132.054 23.5922 132.55 23.4162C133.046 23.2402 133.558 23.1122 134.086 23.0322C134.63 22.9362 135.174 22.8802 135.718 22.8642C136.262 22.8322 136.774 22.8162 137.254 22.8162H137.974V22.5042C137.974 21.7842 137.726 21.2482 137.23 20.8962C136.734 20.5282 136.102 20.3442 135.334 20.3442C134.726 20.3442 134.158 20.4562 133.63 20.6802C133.102 20.8882 132.646 21.1762 132.262 21.5442L130.75 20.0322C131.39 19.3762 132.134 18.9042 132.982 18.6162C133.846 18.3282 134.734 18.1842 135.646 18.1842C136.462 18.1842 137.15 18.2802 137.71 18.4722C138.27 18.6482 138.734 18.8802 139.102 19.1682C139.47 19.4562 139.75 19.7922 139.942 20.1762C140.15 20.5442 140.294 20.9202 140.374 21.3042C140.47 21.6882 140.526 22.0642 140.542 22.4322C140.558 22.7842 140.566 23.0962 140.566 23.3682V29.9922H137.974V28.4082ZM137.806 24.8322H137.206C136.806 24.8322 136.358 24.8482 135.862 24.8802C135.366 24.9122 134.894 24.9922 134.446 25.1202C134.014 25.2322 133.646 25.4082 133.342 25.6482C133.038 25.8722 132.886 26.1922 132.886 26.6082C132.886 26.8802 132.942 27.1122 133.054 27.3042C133.182 27.4802 133.342 27.6322 133.534 27.7602C133.726 27.8882 133.942 27.9842 134.182 28.0482C134.422 28.0962 134.662 28.1202 134.902 28.1202C135.894 28.1202 136.622 27.8882 137.086 27.4242C137.566 26.9442 137.806 26.2962 137.806 25.4802V24.8322ZM142.104 18.4722H145.272L148.488 26.4642H148.536L151.416 18.4722H154.416L148.968 32.4642C148.76 33.0082 148.528 33.4802 148.272 33.8802C148.032 34.2962 147.744 34.6402 147.408 34.9122C147.072 35.2002 146.672 35.4082 146.208 35.5362C145.76 35.6802 145.216 35.7522 144.576 35.7522C143.824 35.7522 143.088 35.6562 142.368 35.4642L142.728 32.8722C142.952 32.9522 143.184 33.0162 143.424 33.0642C143.68 33.1282 143.936 33.1602 144.192 33.1602C144.544 33.1602 144.84 33.1282 145.08 33.0642C145.32 33.0002 145.52 32.8962 145.68 32.7522C145.856 32.6242 146 32.4482 146.112 32.2242C146.224 32.0162 146.344 31.7602 146.472 31.4562L147.024 30.0882L142.104 18.4722Z" fill="#FAFAFA"/>
</svg>
