<svg width="155" height="44" viewBox="0 0 155 44" fill="none" xmlns="http://www.w3.org/2000/svg">
<path d="M40.8033 21.8888C40.8034 23.1072 40.4228 24.2956 39.7144 25.2896C39.0059 26.2836 38.0045 27.0342 36.8486 27.4375C36.5372 27.5032 36.2282 27.5846 35.923 27.6766C33.8075 28.3327 31.9437 29.6153 30.5808 31.353C29.2178 33.0908 28.4207 35.2011 28.296 37.4017C28.2717 37.8478 28.2746 38.2949 28.3044 38.7407C28.1897 39.7904 27.7928 40.79 27.1555 41.6345C26.5182 42.479 25.664 43.1372 24.6826 43.5399C23.7012 43.9426 22.629 44.075 21.5784 43.9231C20.5278 43.7712 19.5378 43.3407 18.7122 42.6767C17.8867 42.0129 17.2562 41.1401 16.887 40.1501C16.5178 39.1601 16.4235 38.0895 16.614 37.0507C16.8044 36.0119 17.2727 35.0434 17.9695 34.2467C18.6663 33.4501 19.566 32.8549 20.574 32.5236C20.8031 32.4718 21.0315 32.4116 21.2592 32.343C23.4407 31.6908 25.3612 30.3737 26.7498 28.5776C28.1383 26.7814 28.9247 24.5969 28.9979 22.3323C29.0068 22.0573 29.0068 21.7823 28.9979 21.5074C28.8985 19.2812 28.1105 17.1398 26.7415 15.376C25.3725 13.612 23.4894 12.3115 21.3494 11.6521C21.0789 11.5672 20.8048 11.4954 20.5295 11.4345C19.5233 11.0882 18.6298 10.4781 17.9434 9.66851C17.257 8.85891 16.8033 7.87991 16.63 6.83499C16.4568 5.79007 16.5706 4.71801 16.9595 3.73212C17.3482 2.74622 17.9976 1.88309 18.8389 1.23393C19.68 0.584776 20.682 0.173705 21.7388 0.0441549C22.7955 -0.085396 23.8678 0.0713871 24.8423 0.497937C25.817 0.924486 26.6575 1.60496 27.2754 2.46745C27.8933 3.32994 28.2654 4.34242 28.3525 5.3979C28.3417 5.69441 28.344 5.9957 28.3525 6.28862C28.4617 8.52182 29.2635 10.6665 30.6476 12.4283C32.0319 14.1899 33.9305 15.4821 36.0828 16.1272C36.2984 16.1917 36.5148 16.2487 36.732 16.2981C37.9163 16.6844 38.9477 17.433 39.6788 18.437C40.41 19.4409 40.8035 20.649 40.8033 21.8888Z" fill="#FAFAFA"/>
<path d="M0.18136 36.8658C0.260406 35.6516 0.716 34.4916 1.4854 33.5456C2.25479 32.5996 3.30015 31.9141 4.47749 31.5836C4.79803 31.5382 5.11378 31.4775 5.42471 31.4019C7.80301 30.8291 9.91775 29.4756 11.4273 27.56C12.9368 25.6445 13.7531 23.2786 13.7441 20.8448C13.9263 19.805 14.3865 18.8331 15.0765 18.0312C15.7665 17.2294 16.6609 16.6271 17.6657 16.2875C18.6706 15.948 19.7487 15.8838 20.787 16.1017C21.8253 16.3196 22.7855 16.8116 23.5667 17.5259C24.348 18.2401 24.9215 19.1505 25.2271 20.1613C25.5326 21.1721 25.5589 22.2461 25.3032 23.2705C25.0474 24.2948 24.5192 25.2319 23.7738 25.9831C23.0285 26.7344 22.0934 27.2722 21.0669 27.5401C20.8266 27.5783 20.5882 27.625 20.3518 27.68C18.1328 28.1938 16.1321 29.3876 14.6319 31.093C13.1316 32.7984 12.2076 34.9293 11.9903 37.185C11.9639 37.4504 11.9495 37.7171 11.9434 37.9836C11.836 38.8183 11.5496 39.6204 11.1038 40.3357C10.6581 41.0508 10.0633 41.6627 9.35944 42.1296C8.65564 42.5967 7.85927 42.9081 7.02413 43.0429C6.18899 43.1776 5.3345 43.1325 4.51836 42.9107C4.308 42.8318 4.09644 42.76 3.88127 42.6966C2.72589 42.2359 1.74619 41.4242 1.08183 40.3772C0.417473 39.3302 0.102344 38.1013 0.18136 36.8658Z" fill="#FAFAFA"/>
<path d="M58.6993 13.0002H65.3233C65.9633 13.0002 66.5953 13.0802 67.2193 13.2402C67.8433 13.3842 68.3953 13.6322 68.8753 13.9842C69.3713 14.3202 69.7713 14.7602 70.0753 15.3042C70.3793 15.8482 70.5313 16.5042 70.5313 17.2722C70.5313 18.2322 70.2593 19.0242 69.7153 19.6482C69.1713 20.2722 68.4593 20.7202 67.5793 20.9922V21.0402C68.1073 21.1042 68.5953 21.2562 69.0433 21.4962C69.5073 21.7202 69.8993 22.0162 70.2193 22.3842C70.5393 22.7362 70.7873 23.1522 70.9633 23.6322C71.1553 24.0962 71.2513 24.6002 71.2513 25.1442C71.2513 26.0722 71.0673 26.8482 70.6993 27.4722C70.3313 28.0802 69.8433 28.5762 69.2353 28.9602C68.6433 29.3282 67.9553 29.5922 67.1713 29.7522C66.4033 29.9122 65.6193 29.9922 64.8193 29.9922H58.6993V13.0002ZM61.7233 19.9122H64.4833C65.4913 19.9122 66.2433 19.7202 66.7393 19.3362C67.2513 18.9362 67.5073 18.4162 67.5073 17.7762C67.5073 17.0402 67.2433 16.4962 66.7153 16.1442C66.2033 15.7762 65.3713 15.5922 64.2193 15.5922H61.7233V19.9122ZM61.7233 27.4002H64.5073C64.8913 27.4002 65.2993 27.3762 65.7313 27.3282C66.1793 27.2802 66.5873 27.1682 66.9553 26.9922C67.3233 26.8162 67.6273 26.5682 67.8673 26.2482C68.1073 25.9122 68.2273 25.4642 68.2273 24.9042C68.2273 24.0082 67.9313 23.3842 67.3393 23.0322C66.7633 22.6802 65.8593 22.5042 64.6273 22.5042H61.7233V27.4002ZM74.0458 11.8482H76.9258V29.9922H74.0458V11.8482ZM80.3037 18.4722H83.1837V29.9922H80.3037V18.4722ZM79.8957 14.5602C79.8957 14.0962 80.0637 13.6962 80.3997 13.3602C80.7517 13.0082 81.1917 12.8322 81.7197 12.8322C82.2477 12.8322 82.6877 13.0002 83.0397 13.3362C83.4077 13.6562 83.5917 14.0642 83.5917 14.5602C83.5917 15.0562 83.4077 15.4722 83.0397 15.8082C82.6877 16.1282 82.2477 16.2882 81.7197 16.2882C81.1917 16.2882 80.7517 16.1202 80.3997 15.7842C80.0637 15.4322 79.8957 15.0242 79.8957 14.5602ZM86.49 18.4722H89.226V20.3202H89.274C89.546 19.7442 89.962 19.2482 90.522 18.8322C91.082 18.4002 91.842 18.1842 92.802 18.1842C93.57 18.1842 94.218 18.3122 94.746 18.5682C95.29 18.8242 95.73 19.1602 96.066 19.5762C96.402 19.9922 96.642 20.4722 96.786 21.0162C96.93 21.5602 97.002 22.1282 97.002 22.7202V29.9922H94.122V24.1602C94.122 23.8402 94.106 23.4882 94.074 23.1042C94.042 22.7042 93.954 22.3362 93.81 22.0002C93.682 21.6482 93.474 21.3602 93.186 21.1362C92.898 20.8962 92.506 20.7762 92.01 20.7762C91.53 20.7762 91.122 20.8562 90.786 21.0162C90.466 21.1762 90.194 21.3922 89.97 21.6642C89.762 21.9362 89.61 22.2482 89.514 22.6002C89.418 22.9522 89.37 23.3202 89.37 23.7042V29.9922H86.49V18.4722ZM112.127 35.4642H109.247V28.5282H109.175C109.031 28.7202 108.847 28.9202 108.623 29.1282C108.399 29.3202 108.127 29.5042 107.807 29.6802C107.487 29.8562 107.119 30.0002 106.703 30.1122C106.287 30.2242 105.807 30.2802 105.263 30.2802C104.447 30.2802 103.695 30.1282 103.007 29.8242C102.319 29.5042 101.727 29.0722 101.231 28.5282C100.751 27.9842 100.375 27.3442 100.103 26.6082C99.8313 25.8722 99.6953 25.0802 99.6953 24.2322C99.6953 23.3842 99.8233 22.5922 100.079 21.8562C100.335 21.1202 100.711 20.4802 101.207 19.9362C101.703 19.3922 102.295 18.9682 102.983 18.6642C103.687 18.3442 104.487 18.1842 105.383 18.1842C106.199 18.1842 106.959 18.3442 107.663 18.6642C108.367 18.9842 108.927 19.4962 109.343 20.2002H109.391V18.4722H112.127V35.4642ZM102.575 24.2322C102.575 24.6802 102.647 25.1122 102.791 25.5282C102.951 25.9442 103.175 26.3122 103.463 26.6322C103.767 26.9522 104.127 27.2082 104.543 27.4002C104.959 27.5922 105.431 27.6882 105.959 27.6882C106.487 27.6882 106.959 27.5922 107.375 27.4002C107.791 27.2082 108.143 26.9522 108.431 26.6322C108.735 26.3122 108.959 25.9442 109.103 25.5282C109.263 25.1122 109.343 24.6802 109.343 24.2322C109.343 23.7842 109.263 23.3522 109.103 22.9362C108.959 22.5202 108.735 22.1522 108.431 21.8322C108.143 21.5122 107.791 21.2562 107.375 21.0642C106.959 20.8722 106.487 20.7762 105.959 20.7762C105.431 20.7762 104.959 20.8722 104.543 21.0642C104.127 21.2562 103.767 21.5122 103.463 21.8322C103.175 22.1522 102.951 22.5202 102.791 22.9362C102.647 23.3522 102.575 23.7842 102.575 24.2322ZM115.388 18.4722H118.124V20.2002H118.172C118.588 19.4962 119.148 18.9842 119.852 18.6642C120.556 18.3442 121.316 18.1842 122.132 18.1842C123.012 18.1842 123.804 18.3442 124.508 18.6642C125.212 18.9682 125.812 19.3922 126.308 19.9362C126.804 20.4802 127.18 21.1202 127.436 21.8562C127.692 22.5922 127.82 23.3842 127.82 24.2322C127.82 25.0802 127.684 25.8722 127.412 26.6082C127.14 27.3442 126.756 27.9842 126.26 28.5282C125.78 29.0722 125.196 29.5042 124.508 29.8242C123.82 30.1282 123.068 30.2802 122.252 30.2802C121.708 30.2802 121.228 30.2242 120.812 30.1122C120.396 30.0002 120.028 29.8562 119.708 29.6802C119.388 29.5042 119.116 29.3202 118.892 29.1282C118.668 28.9202 118.484 28.7202 118.34 28.5282H118.268V35.4642H115.388V18.4722ZM124.94 24.2322C124.94 23.7842 124.86 23.3522 124.7 22.9362C124.556 22.5202 124.332 22.1522 124.028 21.8322C123.74 21.5122 123.388 21.2562 122.972 21.0642C122.556 20.8722 122.084 20.7762 121.556 20.7762C121.028 20.7762 120.556 20.8722 120.14 21.0642C119.724 21.2562 119.364 21.5122 119.06 21.8322C118.772 22.1522 118.548 22.5202 118.388 22.9362C118.244 23.3522 118.172 23.7842 118.172 24.2322C118.172 24.6802 118.244 25.1122 118.388 25.5282C118.548 25.9442 118.772 26.3122 119.06 26.6322C119.364 26.9522 119.724 27.2082 120.14 27.4002C120.556 27.5922 121.028 27.6882 121.556 27.6882C122.084 27.6882 122.556 27.5922 122.972 27.4002C123.388 27.2082 123.74 26.9522 124.028 26.6322C124.332 26.3122 124.556 25.9442 124.7 25.5282C124.86 25.1122 124.94 24.6802 124.94 24.2322ZM137.706 28.4082H137.634C137.218 29.0642 136.69 29.5442 136.05 29.8482C135.41 30.1362 134.706 30.2802 133.938 30.2802C133.41 30.2802 132.89 30.2082 132.378 30.0642C131.882 29.9202 131.434 29.7042 131.034 29.4162C130.65 29.1282 130.338 28.7682 130.098 28.3362C129.858 27.9042 129.738 27.4002 129.738 26.8242C129.738 26.2002 129.85 25.6722 130.074 25.2402C130.298 24.7922 130.594 24.4242 130.962 24.1362C131.346 23.8322 131.786 23.5922 132.282 23.4162C132.778 23.2402 133.29 23.1122 133.818 23.0322C134.362 22.9362 134.906 22.8802 135.45 22.8642C135.994 22.8322 136.506 22.8162 136.986 22.8162H137.706V22.5042C137.706 21.7842 137.458 21.2482 136.962 20.8962C136.466 20.5282 135.834 20.3442 135.066 20.3442C134.458 20.3442 133.89 20.4562 133.362 20.6802C132.834 20.8882 132.378 21.1762 131.994 21.5442L130.482 20.0322C131.122 19.3762 131.866 18.9042 132.714 18.6162C133.578 18.3282 134.466 18.1842 135.378 18.1842C136.194 18.1842 136.882 18.2802 137.442 18.4722C138.002 18.6482 138.466 18.8802 138.834 19.1682C139.202 19.4562 139.482 19.7922 139.674 20.1762C139.882 20.5442 140.026 20.9202 140.106 21.3042C140.202 21.6882 140.258 22.0642 140.274 22.4322C140.29 22.7842 140.298 23.0962 140.298 23.3682V29.9922H137.706V28.4082ZM137.538 24.8322H136.938C136.538 24.8322 136.09 24.8482 135.594 24.8802C135.098 24.9122 134.626 24.9922 134.178 25.1202C133.746 25.2322 133.378 25.4082 133.074 25.6482C132.77 25.8722 132.618 26.1922 132.618 26.6082C132.618 26.8802 132.674 27.1122 132.786 27.3042C132.914 27.4802 133.074 27.6322 133.266 27.7602C133.458 27.8882 133.674 27.9842 133.914 28.0482C134.154 28.0962 134.394 28.1202 134.634 28.1202C135.626 28.1202 136.354 27.8882 136.818 27.4242C137.298 26.9442 137.538 26.2962 137.538 25.4802V24.8322ZM141.836 18.4722H145.004L148.22 26.4642H148.268L151.148 18.4722H154.148L148.7 32.4642C148.492 33.0082 148.26 33.4802 148.004 33.8802C147.764 34.2962 147.476 34.6402 147.14 34.9122C146.804 35.2002 146.404 35.4082 145.94 35.5362C145.492 35.6802 144.948 35.7522 144.308 35.7522C143.556 35.7522 142.82 35.6562 142.1 35.4642L142.46 32.8722C142.684 32.9522 142.916 33.0162 143.156 33.0642C143.412 33.1282 143.668 33.1602 143.924 33.1602C144.276 33.1602 144.572 33.1282 144.812 33.0642C145.052 33.0002 145.252 32.8962 145.412 32.7522C145.588 32.6242 145.732 32.4482 145.844 32.2242C145.956 32.0162 146.076 31.7602 146.204 31.4562L146.756 30.0882L141.836 18.4722Z" fill="#FAFAFA"/>
</svg>
