<svg width="156" height="44" viewBox="0 0 156 44" fill="none" xmlns="http://www.w3.org/2000/svg">
<path d="M41.1695 21.8888C41.1696 23.1072 40.789 24.2956 40.0806 25.2896C39.3722 26.2836 38.3707 27.0342 37.2148 27.4375C36.9034 27.5032 36.5945 27.5846 36.2892 27.6766C34.1737 28.3327 32.3099 29.6153 30.947 31.353C29.584 33.0908 28.7869 35.2011 28.6622 37.4017C28.6379 37.8478 28.6408 38.2949 28.6706 38.7407C28.5559 39.7904 28.159 40.79 27.5217 41.6345C26.8845 42.479 26.0302 43.1372 25.0488 43.5399C24.0674 43.9426 22.9952 44.075 21.9446 43.9231C20.894 43.7712 19.904 43.3407 19.0784 42.6767C18.2529 42.0129 17.6224 41.1401 17.2532 40.1501C16.8841 39.1601 16.7897 38.0895 16.9802 37.0507C17.1706 36.0119 17.6389 35.0434 18.3357 34.2467C19.0325 33.4501 19.9322 32.8549 20.9402 32.5236C21.1693 32.4718 21.3977 32.4116 21.6254 32.343C23.8069 31.6908 25.7274 30.3737 27.116 28.5776C28.5045 26.7814 29.2909 24.5969 29.3641 22.3323C29.373 22.0573 29.373 21.7823 29.3641 21.5074C29.2647 19.2812 28.4767 17.1398 27.1078 15.376C25.7387 13.612 23.8556 12.3115 21.7156 11.6521C21.4451 11.5672 21.171 11.4954 20.8957 11.4345C19.8895 11.0882 18.996 10.4781 18.3096 9.66851C17.6232 8.85891 17.1695 7.87991 16.9962 6.83499C16.823 5.79007 16.9368 4.71801 17.3257 3.73212C17.7144 2.74622 18.3638 1.88309 19.2051 1.23393C20.0463 0.584776 21.0482 0.173705 22.105 0.0441549C23.1617 -0.085396 24.234 0.0713871 25.2086 0.497937C26.1832 0.924486 27.0237 1.60496 27.6416 2.46745C28.2595 3.32994 28.6316 4.34242 28.7187 5.3979C28.7079 5.69441 28.7102 5.9957 28.7187 6.28862C28.828 8.52182 29.6297 10.6665 31.0138 12.4283C32.3981 14.1899 34.2968 15.4821 36.4491 16.1272C36.6646 16.1917 36.881 16.2487 37.0982 16.2981C38.2825 16.6844 39.3139 17.433 40.045 18.437C40.7762 19.4409 41.1697 20.649 41.1695 21.8888Z" fill="#FAFAFA"/>
<path d="M0.547571 36.8658C0.626617 35.6516 1.08221 34.4916 1.85161 33.5456C2.621 32.5996 3.66636 31.9141 4.8437 31.5836C5.16424 31.5382 5.47999 31.4775 5.79092 31.4019C8.16922 30.8291 10.284 29.4756 11.7935 27.56C13.303 25.6445 14.1193 23.2786 14.1103 20.8448C14.2925 19.805 14.7528 18.8331 15.4427 18.0312C16.1328 17.2294 17.0271 16.6271 18.032 16.2875C19.0368 15.948 20.1149 15.8838 21.1532 16.1017C22.1916 16.3196 23.1518 16.8116 23.933 17.5259C24.7143 18.2401 25.2877 19.1505 25.5933 20.1613C25.8988 21.1721 25.9251 22.2461 25.6694 23.2705C25.4136 24.2948 24.8854 25.2319 24.14 25.9831C23.3947 26.7344 22.4596 27.2722 21.4331 27.5401C21.1928 27.5783 20.9544 27.625 20.718 27.68C18.499 28.1938 16.4983 29.3876 14.9981 31.093C13.4978 32.7984 12.5739 34.9293 12.3565 37.185C12.3301 37.4504 12.3157 37.7171 12.3096 37.9836C12.2022 38.8183 11.9158 39.6204 11.4701 40.3357C11.0243 41.0508 10.4295 41.6627 9.72565 42.1296C9.02185 42.5967 8.22548 42.9081 7.39034 43.0429C6.5552 43.1776 5.70071 43.1325 4.88457 42.9107C4.67421 42.8318 4.46265 42.76 4.24749 42.6966C3.0921 42.2359 2.1124 41.4242 1.44804 40.3772C0.783684 39.3302 0.468554 38.1013 0.547571 36.8658Z" fill="#FAFAFA"/>
<path d="M59.0656 13.0002H65.6896C66.3296 13.0002 66.9616 13.0802 67.5856 13.2402C68.2096 13.3842 68.7616 13.6322 69.2416 13.9842C69.7376 14.3202 70.1376 14.7602 70.4416 15.3042C70.7456 15.8482 70.8976 16.5042 70.8976 17.2722C70.8976 18.2322 70.6256 19.0242 70.0816 19.6482C69.5376 20.2722 68.8256 20.7202 67.9456 20.9922V21.0402C68.4736 21.1042 68.9616 21.2562 69.4096 21.4962C69.8736 21.7202 70.2656 22.0162 70.5856 22.3842C70.9056 22.7362 71.1536 23.1522 71.3296 23.6322C71.5216 24.0962 71.6176 24.6002 71.6176 25.1442C71.6176 26.0722 71.4336 26.8482 71.0656 27.4722C70.6976 28.0802 70.2096 28.5762 69.6016 28.9602C69.0096 29.3282 68.3216 29.5922 67.5376 29.7522C66.7696 29.9122 65.9856 29.9922 65.1856 29.9922H59.0656V13.0002ZM62.0896 19.9122H64.8496C65.8576 19.9122 66.6096 19.7202 67.1056 19.3362C67.6176 18.9362 67.8736 18.4162 67.8736 17.7762C67.8736 17.0402 67.6096 16.4962 67.0816 16.1442C66.5696 15.7762 65.7376 15.5922 64.5856 15.5922H62.0896V19.9122ZM62.0896 27.4002H64.8736C65.2576 27.4002 65.6656 27.3762 66.0976 27.3282C66.5456 27.2802 66.9536 27.1682 67.3216 26.9922C67.6896 26.8162 67.9936 26.5682 68.2336 26.2482C68.4736 25.9122 68.5936 25.4642 68.5936 24.9042C68.5936 24.0082 68.2976 23.3842 67.7056 23.0322C67.1296 22.6802 66.2256 22.5042 64.9936 22.5042H62.0896V27.4002ZM74.4121 11.8482H77.2921V29.9922H74.4121V11.8482ZM80.6699 18.4722H83.5499V29.9922H80.6699V18.4722ZM80.2619 14.5602C80.2619 14.0962 80.4299 13.6962 80.7659 13.3602C81.1179 13.0082 81.5579 12.8322 82.0859 12.8322C82.6139 12.8322 83.0539 13.0002 83.4059 13.3362C83.7739 13.6562 83.9579 14.0642 83.9579 14.5602C83.9579 15.0562 83.7739 15.4722 83.4059 15.8082C83.0539 16.1282 82.6139 16.2882 82.0859 16.2882C81.5579 16.2882 81.1179 16.1202 80.7659 15.7842C80.4299 15.4322 80.2619 15.0242 80.2619 14.5602ZM86.8562 18.4722H89.5922V20.3202H89.6402C89.9122 19.7442 90.3282 19.2482 90.8882 18.8322C91.4482 18.4002 92.2082 18.1842 93.1682 18.1842C93.9362 18.1842 94.5842 18.3122 95.1122 18.5682C95.6562 18.8242 96.0962 19.1602 96.4322 19.5762C96.7682 19.9922 97.0082 20.4722 97.1522 21.0162C97.2962 21.5602 97.3682 22.1282 97.3682 22.7202V29.9922H94.4882V24.1602C94.4882 23.8402 94.4722 23.4882 94.4402 23.1042C94.4082 22.7042 94.3202 22.3362 94.1762 22.0002C94.0482 21.6482 93.8402 21.3602 93.5522 21.1362C93.2642 20.8962 92.8722 20.7762 92.3762 20.7762C91.8962 20.7762 91.4882 20.8562 91.1522 21.0162C90.8322 21.1762 90.5602 21.3922 90.3362 21.6642C90.1282 21.9362 89.9762 22.2482 89.8802 22.6002C89.7842 22.9522 89.7362 23.3202 89.7362 23.7042V29.9922H86.8562V18.4722ZM112.493 35.4642H109.613V28.5282H109.541C109.397 28.7202 109.213 28.9202 108.989 29.1282C108.765 29.3202 108.493 29.5042 108.173 29.6802C107.853 29.8562 107.485 30.0002 107.069 30.1122C106.653 30.2242 106.173 30.2802 105.629 30.2802C104.813 30.2802 104.061 30.1282 103.373 29.8242C102.685 29.5042 102.093 29.0722 101.597 28.5282C101.117 27.9842 100.741 27.3442 100.469 26.6082C100.197 25.8722 100.061 25.0802 100.061 24.2322C100.061 23.3842 100.189 22.5922 100.445 21.8562C100.701 21.1202 101.077 20.4802 101.573 19.9362C102.069 19.3922 102.661 18.9682 103.349 18.6642C104.053 18.3442 104.853 18.1842 105.749 18.1842C106.565 18.1842 107.325 18.3442 108.029 18.6642C108.733 18.9842 109.293 19.4962 109.709 20.2002H109.757V18.4722H112.493V35.4642ZM102.941 24.2322C102.941 24.6802 103.013 25.1122 103.157 25.5282C103.317 25.9442 103.541 26.3122 103.829 26.6322C104.133 26.9522 104.493 27.2082 104.909 27.4002C105.325 27.5922 105.797 27.6882 106.325 27.6882C106.853 27.6882 107.325 27.5922 107.741 27.4002C108.157 27.2082 108.509 26.9522 108.797 26.6322C109.101 26.3122 109.325 25.9442 109.469 25.5282C109.629 25.1122 109.709 24.6802 109.709 24.2322C109.709 23.7842 109.629 23.3522 109.469 22.9362C109.325 22.5202 109.101 22.1522 108.797 21.8322C108.509 21.5122 108.157 21.2562 107.741 21.0642C107.325 20.8722 106.853 20.7762 106.325 20.7762C105.797 20.7762 105.325 20.8722 104.909 21.0642C104.493 21.2562 104.133 21.5122 103.829 21.8322C103.541 22.1522 103.317 22.5202 103.157 22.9362C103.013 23.3522 102.941 23.7842 102.941 24.2322ZM115.755 18.4722H118.491V20.2002H118.539C118.955 19.4962 119.515 18.9842 120.219 18.6642C120.923 18.3442 121.683 18.1842 122.499 18.1842C123.379 18.1842 124.171 18.3442 124.875 18.6642C125.579 18.9682 126.179 19.3922 126.675 19.9362C127.171 20.4802 127.547 21.1202 127.803 21.8562C128.059 22.5922 128.187 23.3842 128.187 24.2322C128.187 25.0802 128.051 25.8722 127.779 26.6082C127.507 27.3442 127.123 27.9842 126.627 28.5282C126.147 29.0722 125.563 29.5042 124.875 29.8242C124.187 30.1282 123.435 30.2802 122.619 30.2802C122.075 30.2802 121.595 30.2242 121.179 30.1122C120.763 30.0002 120.395 29.8562 120.075 29.6802C119.755 29.5042 119.483 29.3202 119.259 29.1282C119.035 28.9202 118.851 28.7202 118.707 28.5282H118.635V35.4642H115.755V18.4722ZM125.307 24.2322C125.307 23.7842 125.227 23.3522 125.067 22.9362C124.923 22.5202 124.699 22.1522 124.395 21.8322C124.107 21.5122 123.755 21.2562 123.339 21.0642C122.923 20.8722 122.451 20.7762 121.923 20.7762C121.395 20.7762 120.923 20.8722 120.507 21.0642C120.091 21.2562 119.731 21.5122 119.427 21.8322C119.139 22.1522 118.915 22.5202 118.755 22.9362C118.611 23.3522 118.539 23.7842 118.539 24.2322C118.539 24.6802 118.611 25.1122 118.755 25.5282C118.915 25.9442 119.139 26.3122 119.427 26.6322C119.731 26.9522 120.091 27.2082 120.507 27.4002C120.923 27.5922 121.395 27.6882 121.923 27.6882C122.451 27.6882 122.923 27.5922 123.339 27.4002C123.755 27.2082 124.107 26.9522 124.395 26.6322C124.699 26.3122 124.923 25.9442 125.067 25.5282C125.227 25.1122 125.307 24.6802 125.307 24.2322ZM138.072 28.4082H138C137.584 29.0642 137.056 29.5442 136.416 29.8482C135.776 30.1362 135.072 30.2802 134.304 30.2802C133.776 30.2802 133.256 30.2082 132.744 30.0642C132.248 29.9202 131.8 29.7042 131.4 29.4162C131.016 29.1282 130.704 28.7682 130.464 28.3362C130.224 27.9042 130.104 27.4002 130.104 26.8242C130.104 26.2002 130.216 25.6722 130.44 25.2402C130.664 24.7922 130.96 24.4242 131.328 24.1362C131.712 23.8322 132.152 23.5922 132.648 23.4162C133.144 23.2402 133.656 23.1122 134.184 23.0322C134.728 22.9362 135.272 22.8802 135.816 22.8642C136.36 22.8322 136.872 22.8162 137.352 22.8162H138.072V22.5042C138.072 21.7842 137.824 21.2482 137.328 20.8962C136.832 20.5282 136.2 20.3442 135.432 20.3442C134.824 20.3442 134.256 20.4562 133.728 20.6802C133.2 20.8882 132.744 21.1762 132.36 21.5442L130.848 20.0322C131.488 19.3762 132.232 18.9042 133.08 18.6162C133.944 18.3282 134.832 18.1842 135.744 18.1842C136.56 18.1842 137.248 18.2802 137.808 18.4722C138.368 18.6482 138.832 18.8802 139.2 19.1682C139.568 19.4562 139.848 19.7922 140.04 20.1762C140.248 20.5442 140.392 20.9202 140.472 21.3042C140.568 21.6882 140.624 22.0642 140.64 22.4322C140.656 22.7842 140.664 23.0962 140.664 23.3682V29.9922H138.072V28.4082ZM137.904 24.8322H137.304C136.904 24.8322 136.456 24.8482 135.96 24.8802C135.464 24.9122 134.992 24.9922 134.544 25.1202C134.112 25.2322 133.744 25.4082 133.44 25.6482C133.136 25.8722 132.984 26.1922 132.984 26.6082C132.984 26.8802 133.04 27.1122 133.152 27.3042C133.28 27.4802 133.44 27.6322 133.632 27.7602C133.824 27.8882 134.04 27.9842 134.28 28.0482C134.52 28.0962 134.76 28.1202 135 28.1202C135.992 28.1202 136.72 27.8882 137.184 27.4242C137.664 26.9442 137.904 26.2962 137.904 25.4802V24.8322ZM142.202 18.4722H145.37L148.586 26.4642H148.634L151.514 18.4722H154.514L149.066 32.4642C148.858 33.0082 148.626 33.4802 148.37 33.8802C148.13 34.2962 147.842 34.6402 147.506 34.9122C147.17 35.2002 146.77 35.4082 146.306 35.5362C145.858 35.6802 145.314 35.7522 144.674 35.7522C143.922 35.7522 143.186 35.6562 142.466 35.4642L142.826 32.8722C143.05 32.9522 143.282 33.0162 143.522 33.0642C143.778 33.1282 144.034 33.1602 144.29 33.1602C144.642 33.1602 144.938 33.1282 145.178 33.0642C145.418 33.0002 145.618 32.8962 145.778 32.7522C145.954 32.6242 146.098 32.4482 146.21 32.2242C146.322 32.0162 146.442 31.7602 146.57 31.4562L147.122 30.0882L142.202 18.4722Z" fill="#FAFAFA"/>
</svg>
