<svg width="236" height="46" viewBox="0 0 236 46" fill="none" xmlns="http://www.w3.org/2000/svg">
<path d="M41.5357 21.8888C41.5358 23.1072 41.1552 24.2956 40.4469 25.2896C39.7384 26.2836 38.7369 27.0342 37.581 27.4375C37.2696 27.5032 36.9607 27.5846 36.6554 27.6766C34.5399 28.3327 32.6761 29.6153 31.3132 31.353C29.9502 33.0908 29.1532 35.2011 29.0284 37.4017C29.0041 37.8478 29.007 38.2949 29.0368 38.7407C28.9221 39.7904 28.5252 40.79 27.8879 41.6345C27.2507 42.479 26.3964 43.1372 25.415 43.5399C24.4337 43.9426 23.3614 44.075 22.3108 43.9231C21.2602 43.7712 20.2702 43.3407 19.4446 42.6767C18.6191 42.0129 17.9886 41.1401 17.6194 40.1501C17.2503 39.1601 17.1559 38.0895 17.3464 37.0507C17.5368 36.0119 18.0051 35.0434 18.7019 34.2467C19.3987 33.4501 20.2984 32.8549 21.3064 32.5236C21.5356 32.4718 21.764 32.4116 21.9916 32.343C24.1731 31.6908 26.0937 30.3737 27.4822 28.5776C28.8707 26.7814 29.6571 24.5969 29.7303 22.3323C29.7392 22.0573 29.7392 21.7823 29.7303 21.5074C29.6309 19.2812 28.8429 17.1398 27.474 15.376C26.1049 13.612 24.2218 12.3115 22.0818 11.6521C21.8113 11.5672 21.5373 11.4954 21.2619 11.4345C20.2557 11.0882 19.3622 10.4781 18.6758 9.66851C17.9894 8.85891 17.5357 7.87991 17.3624 6.83499C17.1892 5.79007 17.303 4.71801 17.6919 3.73212C18.0806 2.74622 18.73 1.88309 19.5713 1.23393C20.4125 0.584776 21.4144 0.173705 22.4712 0.0441549C23.5279 -0.085396 24.6003 0.0713871 25.5748 0.497937C26.5494 0.924486 27.3899 1.60496 28.0078 2.46745C28.6257 3.32994 28.9978 4.34242 29.0849 5.3979C29.0741 5.69441 29.0764 5.9957 29.0849 6.28862C29.1942 8.52182 29.9959 10.6665 31.3801 12.4283C32.7643 14.1899 34.663 15.4821 36.8153 16.1272C37.0308 16.1917 37.2472 16.2487 37.4644 16.2981C38.6488 16.6844 39.6801 17.433 40.4112 18.437C41.1424 19.4409 41.5359 20.649 41.5357 21.8888Z" fill="#FAFAFA"/>
<path d="M0.913782 36.8658C0.992828 35.6516 1.44842 34.4916 2.21782 33.5456C2.98722 32.5996 4.03257 31.9141 5.20991 31.5836C5.53046 31.5382 5.8462 31.4775 6.15713 31.4019C8.53543 30.8291 10.6502 29.4756 12.1597 27.56C13.6692 25.6445 14.4855 23.2786 14.4765 20.8448C14.6587 19.805 15.119 18.8331 15.8089 18.0312C16.499 17.2294 17.3933 16.6271 18.3982 16.2875C19.403 15.948 20.4811 15.8838 21.5195 16.1017C22.5578 16.3196 23.518 16.8116 24.2992 17.5259C25.0805 18.2401 25.6539 19.1505 25.9595 20.1613C26.265 21.1721 26.2913 22.2461 26.0356 23.2705C25.7798 24.2948 25.2516 25.2319 24.5063 25.9831C23.7609 26.7344 22.8258 27.2722 21.7994 27.5401C21.559 27.5783 21.3206 27.625 21.0842 27.68C18.8652 28.1938 16.8645 29.3876 15.3643 31.093C13.864 32.7984 12.9401 34.9293 12.7227 37.185C12.6963 37.4504 12.6819 37.7171 12.6759 37.9836C12.5684 38.8183 12.282 39.6204 11.8363 40.3357C11.3905 41.0508 10.7957 41.6627 10.0919 42.1296C9.38806 42.5967 8.59169 42.9081 7.75655 43.0429C6.92141 43.1776 6.06692 43.1325 5.25078 42.9107C5.04042 42.8318 4.82886 42.76 4.6137 42.6966C3.45831 42.2359 2.47862 41.4242 1.81425 40.3772C1.14989 39.3302 0.834765 38.1013 0.913782 36.8658Z" fill="#FAFAFA"/>
<path d="M60.8536 5.25619H72.4456C73.5656 5.25619 74.6716 5.39619 75.7636 5.67619C76.8556 5.92819 77.8216 6.36219 78.6616 6.97819C79.5296 7.56619 80.2296 8.33619 80.7616 9.28819C81.2936 10.2402 81.5596 11.3882 81.5596 12.7322C81.5596 14.4122 81.0836 15.7982 80.1316 16.8902C79.1796 17.9822 77.9336 18.7662 76.3936 19.2422V19.3262C77.3176 19.4382 78.1716 19.7042 78.9556 20.1242C79.7676 20.5162 80.4536 21.0342 81.0136 21.6782C81.5736 22.2942 82.0076 23.0222 82.3156 23.8622C82.6516 24.6742 82.8196 25.5562 82.8196 26.5082C82.8196 28.1322 82.4976 29.4902 81.8536 30.5822C81.2096 31.6462 80.3556 32.5142 79.2916 33.1862C78.2556 33.8302 77.0516 34.2922 75.6796 34.5722C74.3356 34.8522 72.9636 34.9922 71.5636 34.9922H60.8536V5.25619ZM66.1456 17.3522H70.9756C72.7396 17.3522 74.0556 17.0162 74.9236 16.3442C75.8196 15.6442 76.2676 14.7342 76.2676 13.6142C76.2676 12.3262 75.8056 11.3742 74.8816 10.7582C73.9856 10.1142 72.5296 9.79219 70.5136 9.79219H66.1456V17.3522ZM66.1456 30.4562H71.0176C71.6896 30.4562 72.4036 30.4142 73.1596 30.3302C73.9436 30.2462 74.6576 30.0502 75.3016 29.7422C75.9456 29.4342 76.4776 29.0002 76.8976 28.4402C77.3176 27.8522 77.5276 27.0682 77.5276 26.0882C77.5276 24.5202 77.0096 23.4282 75.9736 22.8122C74.9656 22.1962 73.3836 21.8882 71.2276 21.8882H66.1456V30.4562ZM88.71 3.24019H93.75V34.9922H88.71V3.24019ZM100.661 14.8322H105.701V34.9922H100.661V14.8322ZM99.9472 7.98619C99.9472 7.17419 100.241 6.47419 100.829 5.88619C101.445 5.27019 102.215 4.96219 103.139 4.96219C104.063 4.96219 104.833 5.25619 105.449 5.84419C106.093 6.40419 106.415 7.11819 106.415 7.98619C106.415 8.85419 106.093 9.58219 105.449 10.1702C104.833 10.7302 104.063 11.0102 103.139 11.0102C102.215 11.0102 101.445 10.7162 100.829 10.1282C100.241 9.51219 99.9472 8.79819 99.9472 7.98619ZM112.487 14.8322H117.275V18.0662H117.359C117.835 17.0582 118.563 16.1902 119.543 15.4622C120.523 14.7062 121.853 14.3282 123.533 14.3282C124.877 14.3282 126.011 14.5522 126.935 15.0002C127.887 15.4482 128.657 16.0362 129.245 16.7642C129.833 17.4922 130.253 18.3322 130.505 19.2842C130.757 20.2362 130.883 21.2302 130.883 22.2662V34.9922H125.843V24.7862C125.843 24.2262 125.815 23.6102 125.759 22.9382C125.703 22.2382 125.549 21.5942 125.297 21.0062C125.073 20.3902 124.709 19.8862 124.205 19.4942C123.701 19.0742 123.015 18.8642 122.147 18.8642C121.307 18.8642 120.593 19.0042 120.005 19.2842C119.445 19.5642 118.969 19.9422 118.577 20.4182C118.213 20.8942 117.947 21.4402 117.779 22.0562C117.611 22.6722 117.527 23.3162 117.527 23.9882V34.9922H112.487V14.8322ZM158.353 44.5682H153.313V32.4302H153.187C152.935 32.7662 152.613 33.1162 152.221 33.4802C151.829 33.8162 151.353 34.1382 150.793 34.4462C150.233 34.7542 149.589 35.0062 148.861 35.2022C148.133 35.3982 147.293 35.4962 146.341 35.4962C144.913 35.4962 143.597 35.2302 142.393 34.6982C141.189 34.1382 140.153 33.3822 139.285 32.4302C138.445 31.4782 137.787 30.3582 137.311 29.0702C136.835 27.7822 136.597 26.3962 136.597 24.9122C136.597 23.4282 136.821 22.0422 137.269 20.7542C137.717 19.4662 138.375 18.3462 139.243 17.3942C140.111 16.4422 141.147 15.7002 142.351 15.1682C143.583 14.6082 144.983 14.3282 146.551 14.3282C147.979 14.3282 149.309 14.6082 150.541 15.1682C151.773 15.7282 152.753 16.6242 153.481 17.8562H153.565V14.8322H158.353V44.5682ZM141.637 24.9122C141.637 25.6962 141.763 26.4522 142.015 27.1802C142.295 27.9082 142.687 28.5522 143.191 29.1122C143.723 29.6722 144.353 30.1202 145.081 30.4562C145.809 30.7922 146.635 30.9602 147.559 30.9602C148.483 30.9602 149.309 30.7922 150.037 30.4562C150.765 30.1202 151.381 29.6722 151.885 29.1122C152.417 28.5522 152.809 27.9082 153.061 27.1802C153.341 26.4522 153.481 25.6962 153.481 24.9122C153.481 24.1282 153.341 23.3722 153.061 22.6442C152.809 21.9162 152.417 21.2722 151.885 20.7122C151.381 20.1522 150.765 19.7042 150.037 19.3682C149.309 19.0322 148.483 18.8642 147.559 18.8642C146.635 18.8642 145.809 19.0322 145.081 19.3682C144.353 19.7042 143.723 20.1522 143.191 20.7122C142.687 21.2722 142.295 21.9162 142.015 22.6442C141.763 23.3722 141.637 24.1282 141.637 24.9122ZM165.06 14.8322H169.848V17.8562H169.932C170.66 16.6242 171.64 15.7282 172.872 15.1682C174.104 14.6082 175.434 14.3282 176.862 14.3282C178.402 14.3282 179.788 14.6082 181.02 15.1682C182.252 15.7002 183.302 16.4422 184.17 17.3942C185.038 18.3462 185.696 19.4662 186.144 20.7542C186.592 22.0422 186.816 23.4282 186.816 24.9122C186.816 26.3962 186.578 27.7822 186.102 29.0702C185.626 30.3582 184.954 31.4782 184.086 32.4302C183.246 33.3822 182.224 34.1382 181.02 34.6982C179.816 35.2302 178.5 35.4962 177.072 35.4962C176.12 35.4962 175.28 35.3982 174.552 35.2022C173.824 35.0062 173.18 34.7542 172.62 34.4462C172.06 34.1382 171.584 33.8162 171.192 33.4802C170.8 33.1162 170.478 32.7662 170.226 32.4302H170.1V44.5682H165.06V14.8322ZM181.776 24.9122C181.776 24.1282 181.636 23.3722 181.356 22.6442C181.104 21.9162 180.712 21.2722 180.18 20.7122C179.676 20.1522 179.06 19.7042 178.332 19.3682C177.604 19.0322 176.778 18.8642 175.854 18.8642C174.93 18.8642 174.104 19.0322 173.376 19.3682C172.648 19.7042 172.018 20.1522 171.486 20.7122C170.982 21.2722 170.59 21.9162 170.31 22.6442C170.058 23.3722 169.932 24.1282 169.932 24.9122C169.932 25.6962 170.058 26.4522 170.31 27.1802C170.59 27.9082 170.982 28.5522 171.486 29.1122C172.018 29.6722 172.648 30.1202 173.376 30.4562C174.104 30.7922 174.93 30.9602 175.854 30.9602C176.778 30.9602 177.604 30.7922 178.332 30.4562C179.06 30.1202 179.676 29.6722 180.18 29.1122C180.712 28.5522 181.104 27.9082 181.356 27.1802C181.636 26.4522 181.776 25.6962 181.776 24.9122ZM205.115 32.2202H204.989C204.261 33.3682 203.337 34.2082 202.217 34.7402C201.097 35.2442 199.865 35.4962 198.521 35.4962C197.597 35.4962 196.687 35.3702 195.791 35.1182C194.923 34.8662 194.139 34.4882 193.439 33.9842C192.767 33.4802 192.221 32.8502 191.801 32.0942C191.381 31.3382 191.171 30.4562 191.171 29.4482C191.171 28.3562 191.367 27.4322 191.759 26.6762C192.151 25.8922 192.669 25.2482 193.313 24.7442C193.985 24.2122 194.755 23.7922 195.623 23.4842C196.491 23.1762 197.387 22.9522 198.311 22.8122C199.263 22.6442 200.215 22.5462 201.167 22.5182C202.119 22.4622 203.015 22.4342 203.855 22.4342H205.115V21.8882C205.115 20.6282 204.681 19.6902 203.813 19.0742C202.945 18.4302 201.839 18.1082 200.495 18.1082C199.431 18.1082 198.437 18.3042 197.513 18.6962C196.589 19.0602 195.791 19.5642 195.119 20.2082L192.473 17.5622C193.593 16.4142 194.895 15.5882 196.379 15.0842C197.891 14.5802 199.445 14.3282 201.041 14.3282C202.469 14.3282 203.673 14.4962 204.653 14.8322C205.633 15.1402 206.445 15.5462 207.089 16.0502C207.733 16.5542 208.223 17.1422 208.559 17.8142C208.923 18.4582 209.175 19.1162 209.315 19.7882C209.483 20.4602 209.581 21.1182 209.609 21.7622C209.637 22.3782 209.651 22.9242 209.651 23.4002V34.9922H205.115V32.2202ZM204.821 25.9622H203.771C203.071 25.9622 202.287 25.9902 201.419 26.0462C200.551 26.1022 199.725 26.2422 198.941 26.4662C198.185 26.6622 197.541 26.9702 197.009 27.3902C196.477 27.7822 196.211 28.3422 196.211 29.0702C196.211 29.5462 196.309 29.9522 196.505 30.2882C196.729 30.5962 197.009 30.8622 197.345 31.0862C197.681 31.3102 198.059 31.4782 198.479 31.5902C198.899 31.6742 199.319 31.7162 199.739 31.7162C201.475 31.7162 202.749 31.3102 203.561 30.4982C204.401 29.6582 204.821 28.5242 204.821 27.0962V25.9622ZM213.343 14.8322H218.887L224.515 28.8182H224.599L229.639 14.8322H234.889L225.355 39.3182C224.991 40.2702 224.585 41.0962 224.137 41.7962C223.717 42.5242 223.213 43.1262 222.625 43.6022C222.037 44.1062 221.337 44.4702 220.525 44.6942C219.741 44.9462 218.789 45.0722 217.669 45.0722C216.353 45.0722 215.065 44.9042 213.805 44.5682L214.435 40.0322C214.827 40.1722 215.233 40.2842 215.653 40.3682C216.101 40.4802 216.549 40.5362 216.997 40.5362C217.613 40.5362 218.131 40.4802 218.551 40.3682C218.971 40.2562 219.321 40.0742 219.601 39.8222C219.909 39.5982 220.161 39.2902 220.357 38.8982C220.553 38.5342 220.763 38.0862 220.987 37.5542L221.953 35.1602L213.343 14.8322Z" fill="#FAFAFA"/>
</svg>
